<svg xmlns="http://www.w3.org/2000/svg" viewBox="0 0 1440 320"><path fill="#e3eef9" fill-opacity="1" d="M0,32L14.1,69.3C28.2,107,56,181,85,192C112.9,203,141,149,169,144C197.6,139,226,181,254,165.3C282.4,149,311,75,339,74.7C367.1,75,395,149,424,165.3C451.8,181,480,139,508,101.3C536.5,64,565,32,593,26.7C621.2,21,649,43,678,74.7C705.9,107,734,149,762,154.7C790.6,160,819,128,847,138.7C875.3,149,904,203,932,224C960,245,988,235,1016,224C1044.7,213,1073,203,1101,192C1129.4,181,1158,171,1186,160C1214.1,149,1242,139,1271,144C1298.8,149,1327,171,1355,197.3C1383.5,224,1412,256,1426,272L1440,288L1440,320L1425.9,320C1411.8,320,1384,320,1355,320C1327.1,320,1299,320,1271,320C1242.4,320,1214,320,1186,320C1157.6,320,1129,320,1101,320C1072.9,320,1045,320,1016,320C988.2,320,960,320,932,320C903.5,320,875,320,847,320C818.8,320,791,320,762,320C734.1,320,706,320,678,320C649.4,320,621,320,593,320C564.7,320,536,320,508,320C480,320,452,320,424,320C395.3,320,367,320,339,320C310.6,320,282,320,254,320C225.9,320,198,320,169,320C141.2,320,113,320,85,320C56.5,320,28,320,14,320L0,320Z"></path></svg>