<svg xmlns="http://www.w3.org/2000/svg" viewBox="0 0 1440 210">
<path id="MyPath" fill="white" d="M1 102C44.2 -32.6667 98.2 -32.6667 163 102C227.8 236.667 281.8 236.667 325 102C368.2 -32.6667 422.2 -32.6667 487 102C551.8 236.667 605.8 236.667 649 102C692.2 -32.6667 746.2 -32.6667 811 102C875.8 236.667 929.8 236.667 973 102C1016.2 -32.6667 1070.2 -32.6667 1135 102C1199.8 236.667 1253.8 236.667 1297 102C1340.2 -32.6667 1394.2 -32.6667 1459 102C1523.8 236.667 1577.8 236.667 1621 102" stroke="#4C75F2" stroke-width="2"/>
   <text font-color='#00abe4'>
    <textPath href="#MyPath" font-color='#00abe4'>
      010101010101010101010101010101010101010101010101010101010101
      010101010101010101010101010101010101010101010101010101010101
      010101010101010101010101010101010101010101010101010101010101
      010101010101010101010101010101010101010101010101010101010101
      010101010101010101010101010101010101010101010101010101010101
      010101010101010101010101010101010101010101010101010101010101
      010101010101010101010101010101010101010101010101010101010101
      010101010101010101010101010101010101010101010101010101010101
      010101010101010101010101010101010101010101010101010101010101
    </textPath>
  </text>
</svg>